# File created by Blade
# Date/Time:  Thu Sep 25 19:04:16 2014
# Frame Rate: 120.000 fps
#------------------------------------------------------
:FULLY-SPECIFIED
:DEGREES
1478
root 7.497498 16.915143 -8.406936 25.629999 28.120728 -20.231544
Spine 13.222408 -7.361656 -46.329420
Head -17.867611 -21.366535 4.626895
LeftShoulder -3.857132 10.028239 23.193555
LeftArm 15.557819 -0.137191 -47.448268
LeftForeArm 17.372543 -0.000000 19.591437
LeftHand -39.488133 -0.000000 67.159620
LeftHandThumb1 -26.253704 0.000000 33.147579
RightShoulder -18.850980 20.692369 -48.041746
RightArm -8.114590 9.619047 10.245008
RightForeArm -16.571060 -0.000000 13.302399
RightHand -18.888897 -0.000000 -21.555555
RightHandThumb1 -24.326973 -0.000000 -32.862282
LeftUpLeg -121.657763 44.486213 7.173834
LeftLeg 110.848952 -0.000000 -0.000000
LeftFoot -23.454617 -24.239612 -15.855091
LeftToeBase 2.726209 -0.000000 -0.000000
RightUpLeg -9.908728 -42.482013 -28.002547
RightLeg 3.735406 -0.000000 -0.000000
RightFoot 3.922716 -14.886370 40.546696
RightToeBase 5.354684 -0.000000 -0.000000
1479
root 7.495928 16.883764 -8.399780 25.528737 27.964693 -20.292180
Spine 13.191911 -7.307479 -46.317667
Head -17.686874 -21.574879 4.314535
LeftShoulder -3.854341 10.121722 23.207493
LeftArm 15.452923 -0.492549 -47.677584
LeftForeArm 17.633556 0.000000 19.621743
LeftHand -39.411174 -0.000000 67.867917
LeftHandThumb1 -26.253704 0.000000 33.147579
RightShoulder -18.824787 20.656215 -48.105507
RightArm -8.111609 9.658335 10.100566
RightForeArm -16.582507 -0.000000 13.336181
RightHand -19.089447 -0.000000 -21.340444
RightHandThumb1 -24.326973 -0.000000 -32.862282
LeftUpLeg -121.529406 44.656336 7.387234
LeftLeg 110.978592 -0.000000 -0.000000
LeftFoot -23.381405 -24.240109 -15.991992
LeftToeBase 2.399494 -0.000000 -0.000000
RightUpLeg -9.890692 -42.387311 -28.079654
RightLeg 3.766085 -0.000000 -0.000000
RightFoot 3.884672 -14.751170 40.888089
RightToeBase 5.258261 -0.000000 -0.000000
1480
root 7.497739 16.851904 -8.399011 25.463286 27.837687 -20.280226
Spine 13.247948 -7.359024 -46.357630
Head -17.595725 -21.781205 3.936089
LeftShoulder -3.908989 10.095902 23.173301
LeftArm 15.220092 -0.788602 -47.870218
LeftForeArm 17.795817 -0.000000 19.723411
LeftHand -39.496306 -0.000000 68.397355
LeftHandThumb1 -26.253704 0.000000 33.147579
RightShoulder -18.858181 20.649843 -48.208663
RightArm -8.014505 9.703076 10.032765
RightForeArm -16.447206 -0.000000 13.345823
RightHand -19.048287 -0.000000 -21.363005
RightHandThumb1 -24.326973 -0.000000 -32.862282
LeftUpLeg -121.411336 44.735134 7.555424
LeftLeg 111.123709 -0.000000 -0.000000
LeftFoot -23.577777 -24.052451 -15.753482
LeftToeBase 2.493393 -0.000000 -0.000000
RightUpLeg -9.839050 -42.308428 -28.240338
RightLeg 3.794454 -0.000000 -0.000000
RightFoot 3.788795 -14.648885 41.339460
RightToeBase 5.280327 -0.000000 -0.000000
1481
root 7.497191 16.818283 -8.392757 25.365784 27.706395 -20.305526
Spine 13.269638 -7.350405 -46.361449
Head -17.443454 -21.979304 3.524603
LeftShoulder -3.929913 10.081406 23.144567
LeftArm 15.020397 -1.108448 -48.069008
LeftForeArm 18.074054 0.000000 19.774472
LeftHand -39.481210 0.000000 69.367527
LeftHandThumb1 -26.253704 0.000000 33.147579
RightShoulder -18.838827 20.680010 -48.379501
RightArm -8.077057 9.689127 10.003615
RightForeArm -16.577695 -0.000000 13.415474
RightHand -19.124359 -0.000000 -21.579605
RightHandThumb1 -24.326973 -0.000000 -32.862282
LeftUpLeg -121.247928 44.846364 7.797030
LeftLeg 111.273150 -0.000000 -0.000000
LeftFoot -23.455319 -24.075745 -15.990712
LeftToeBase 2.172011 -0.000000 -0.000000
RightUpLeg -9.755681 -42.205942 -28.376472
RightLeg 3.799986 -0.000000 -0.000000
RightFoot 3.654650 -14.543443 41.752695
RightToeBase 5.436829 -0.000000 -0.000000
1482
root 7.497080 16.786057 -8.384997 25.253804 27.534717 -20.358882
Spine 13.270129 -7.290834 -46.370778
Head -17.305357 -22.154486 3.191644
LeftShoulder -3.971484 10.104830 23.118653
LeftArm 14.896144 -1.553375 -48.319834
LeftForeArm 18.472983 -0.000000 19.809468
LeftHand -39.567346 0.000000 69.934658
LeftHandThumb1 -26.253704 0.000000 33.147579
RightShoulder -18.845814 20.689899 -48.512484
RightArm -8.128219 9.705644 9.950567
RightForeArm -16.582330 -0.000000 13.538844
RightHand -19.174623 -0.000000 -21.463616
RightHandThumb1 -24.326973 -0.000000 -32.862282
LeftUpLeg -121.104434 45.016505 8.010527
LeftLeg 111.410128 -0.000000 -0.000000
LeftFoot -23.493554 -23.979754 -15.905684
LeftToeBase 1.879014 -0.000000 -0.000000
RightUpLeg -9.712208 -42.024120 -28.488545
RightLeg 3.833777 -0.000000 -0.000000
RightFoot 3.605759 -14.405503 41.958331
RightToeBase 5.386783 -0.000000 -0.000000
